<mxfile host="Electron" agent="Mozilla/5.0 (X11; Linux x86_64) AppleWebKit/537.36 (KHTML, like Gecko) draw.io/26.0.9 Chrome/128.0.6613.186 Electron/32.3.1 Safari/537.36" version="26.0.9">
  <diagram name="page 1" id="qVR1apmD6zJQwRJWvuhT">
    <mxGraphModel dx="230" dy="826" grid="1" gridSize="10" guides="0" tooltips="1" connect="0" arrows="0" fold="1" page="0" pageScale="1" pageWidth="1" pageHeight="1" math="0" shadow="0">
      <root>
        <mxCell id="0" />
        <mxCell id="1" parent="0" />
        <mxCell id="KwJuDZs4jaI91m34SEeo-4" value="arrow meaning" style="dropTarget=0;fillColor=#BEBEBE;fontFamily=Source Sans Pro;verticalAlign=top;fillStyle=hatch;strokeColor=default;perimeterSpacing=1;rounded=0;glass=0;shadow=0;align=center;labelBackgroundColor=none;labelBorderColor=none;textShadow=0;fontStyle=1;spacing=2;html=1;whiteSpace=wrap;" parent="1" vertex="1">
          <mxGeometry x="1440" y="80" width="240" height="160" as="geometry" />
        </mxCell>
        <mxCell id="KwJuDZs4jaI91m34SEeo-23" value="A" style="ellipse;whiteSpace=wrap;html=1;aspect=fixed;fontFamily=Source Sans Pro;fillColor=#E6E6E6;fillStyle=solid;fontStyle=1;verticalAlign=middle;align=center;fontSize=10;" parent="1" vertex="1">
          <mxGeometry x="1480" y="140" width="40" height="40" as="geometry" />
        </mxCell>
        <mxCell id="KwJuDZs4jaI91m34SEeo-25" value="B" style="ellipse;whiteSpace=wrap;html=1;aspect=fixed;fontFamily=Source Sans Pro;fillColor=#E6E6E6;fillStyle=solid;fontStyle=1;verticalAlign=middle;align=center;fontSize=10;" parent="1" vertex="1">
          <mxGeometry x="1600" y="140" width="40" height="40" as="geometry" />
        </mxCell>
        <mxCell id="KwJuDZs4jaI91m34SEeo-26" value="" style="endArrow=diamondThin;html=1;rounded=0;endSize=8;startArrow=classic;startFill=1;endFill=0;startSize=8;jumpSize=5;fontFamily=Source Code Pro;fontSize=50;" parent="1" source="KwJuDZs4jaI91m34SEeo-23" target="KwJuDZs4jaI91m34SEeo-25" edge="1">
          <mxGeometry width="50" height="50" relative="1" as="geometry">
            <mxPoint x="1828" y="346" as="sourcePoint" />
            <mxPoint x="1872" y="434" as="targetPoint" />
          </mxGeometry>
        </mxCell>
        <mxCell id="KwJuDZs4jaI91m34SEeo-28" value="&lt;div&gt;B follows A&lt;/div&gt;A influences B" style="text;html=1;align=center;verticalAlign=middle;whiteSpace=wrap;rounded=0;fontFamily=Source Sans Pro;fontSize=8;fontStyle=1;fillColor=none;" parent="1" vertex="1">
          <mxGeometry x="1500" y="180" width="120" height="40" as="geometry" />
        </mxCell>
        <mxCell id="KwJuDZs4jaI91m34SEeo-29" value="" style="endArrow=none;html=1;rounded=0;endSize=10;startArrow=none;startFill=0;endFill=0;startSize=10;jumpSize=5;fontFamily=Source Code Pro;fontSize=50;edgeStyle=orthogonalEdgeStyle;dashed=1;" parent="1" source="KwJuDZs4jaI91m34SEeo-28" edge="1">
          <mxGeometry width="50" height="50" relative="1" as="geometry">
            <mxPoint x="1370" y="470" as="sourcePoint" />
            <mxPoint x="1560" y="160" as="targetPoint" />
          </mxGeometry>
        </mxCell>
        <mxCell id="KhNc6csPzSfjd1sM-tKL-1" value="" style="endArrow=diamondThin;html=1;rounded=0;endSize=8;startArrow=classic;startFill=1;endFill=0;startSize=8;jumpSize=5;fontFamily=Source Code Pro;fontSize=50;" parent="1" source="KhNc6csPzSfjd1sM-tKL-2" target="KhNc6csPzSfjd1sM-tKL-11" edge="1">
          <mxGeometry width="50" height="50" relative="1" as="geometry">
            <mxPoint x="1410" y="290" as="sourcePoint" />
            <mxPoint x="1600" y="320" as="targetPoint" />
          </mxGeometry>
        </mxCell>
        <mxCell id="KhNc6csPzSfjd1sM-tKL-2" value="01" style="ellipse;whiteSpace=wrap;html=1;aspect=fixed;fontFamily=Source Sans Pro;fillColor=#E6E6E6;fillStyle=solid;fontStyle=1;verticalAlign=middle;align=center;fontSize=10;" parent="1" vertex="1">
          <mxGeometry x="1520" y="360" width="40" height="40" as="geometry" />
        </mxCell>
        <mxCell id="KhNc6csPzSfjd1sM-tKL-3" value="Iz" style="ellipse;whiteSpace=wrap;html=1;aspect=fixed;fontFamily=Source Sans Pro;fillColor=#BEBEBE;fillStyle=solid;fontStyle=1;verticalAlign=middle;align=center;fontSize=10;" parent="1" vertex="1">
          <mxGeometry x="1440" y="360" width="40" height="40" as="geometry" />
        </mxCell>
        <mxCell id="KhNc6csPzSfjd1sM-tKL-4" value="De" style="ellipse;whiteSpace=wrap;html=1;aspect=fixed;fontFamily=Source Sans Pro;fillColor=#BEBEBE;fillStyle=solid;fontStyle=1;verticalAlign=middle;align=center;fontSize=10;" parent="1" vertex="1">
          <mxGeometry x="1880" y="360" width="40" height="40" as="geometry" />
        </mxCell>
        <mxCell id="KhNc6csPzSfjd1sM-tKL-5" value="Ce" style="ellipse;whiteSpace=wrap;html=1;aspect=fixed;fontFamily=Source Sans Pro;fillColor=#BEBEBE;fillStyle=solid;fontStyle=1;verticalAlign=middle;align=center;fontSize=10;" parent="1" vertex="1">
          <mxGeometry x="1720" y="120" width="40" height="40" as="geometry" />
        </mxCell>
        <mxCell id="KhNc6csPzSfjd1sM-tKL-6" value="Li" style="ellipse;whiteSpace=wrap;html=1;aspect=fixed;fontFamily=Source Sans Pro;fillColor=#BEBEBE;fillStyle=solid;fontStyle=1;verticalAlign=middle;align=center;fontSize=10;" parent="1" vertex="1">
          <mxGeometry x="1720" y="520" width="40" height="40" as="geometry" />
        </mxCell>
        <mxCell id="KhNc6csPzSfjd1sM-tKL-7" value="" style="endArrow=diamondThin;html=1;rounded=0;endSize=8;startArrow=classic;startFill=1;endFill=0;startSize=8;jumpSize=5;fontFamily=Source Code Pro;fontSize=50;" parent="1" source="KhNc6csPzSfjd1sM-tKL-3" target="KhNc6csPzSfjd1sM-tKL-2" edge="1">
          <mxGeometry width="50" height="50" relative="1" as="geometry">
            <mxPoint x="1639" y="248" as="sourcePoint" />
            <mxPoint x="1661" y="292" as="targetPoint" />
          </mxGeometry>
        </mxCell>
        <mxCell id="KhNc6csPzSfjd1sM-tKL-8" value="" style="endArrow=diamondThin;html=1;rounded=0;endSize=8;startArrow=classic;startFill=1;endFill=0;startSize=8;jumpSize=5;fontFamily=Source Code Pro;fontSize=50;" parent="1" source="KhNc6csPzSfjd1sM-tKL-4" target="KhNc6csPzSfjd1sM-tKL-19" edge="1">
          <mxGeometry width="50" height="50" relative="1" as="geometry">
            <mxPoint x="1630" y="170" as="sourcePoint" />
            <mxPoint x="1700" y="200" as="targetPoint" />
          </mxGeometry>
        </mxCell>
        <mxCell id="KhNc6csPzSfjd1sM-tKL-9" value="" style="endArrow=diamondThin;html=1;rounded=0;endSize=8;startArrow=classic;startFill=1;endFill=0;startSize=8;jumpSize=5;fontFamily=Source Code Pro;fontSize=50;" parent="1" source="KhNc6csPzSfjd1sM-tKL-5" target="KhNc6csPzSfjd1sM-tKL-26" edge="1">
          <mxGeometry width="50" height="50" relative="1" as="geometry">
            <mxPoint x="1880" y="130" as="sourcePoint" />
            <mxPoint x="1950" y="160" as="targetPoint" />
          </mxGeometry>
        </mxCell>
        <mxCell id="KhNc6csPzSfjd1sM-tKL-10" value="" style="endArrow=diamondThin;html=1;rounded=0;endSize=8;startArrow=classic;startFill=1;endFill=0;startSize=8;jumpSize=5;fontFamily=Source Code Pro;fontSize=50;" parent="1" source="KhNc6csPzSfjd1sM-tKL-6" target="KhNc6csPzSfjd1sM-tKL-17" edge="1">
          <mxGeometry width="50" height="50" relative="1" as="geometry">
            <mxPoint x="1790" y="170" as="sourcePoint" />
            <mxPoint x="1860" y="200" as="targetPoint" />
          </mxGeometry>
        </mxCell>
        <mxCell id="KhNc6csPzSfjd1sM-tKL-11" value="02" style="ellipse;whiteSpace=wrap;html=1;aspect=fixed;fontFamily=Source Sans Pro;fillColor=#E6E6E6;fillStyle=solid;fontStyle=1;verticalAlign=middle;align=center;fontSize=10;" parent="1" vertex="1">
          <mxGeometry x="1600" y="280" width="40" height="40" as="geometry" />
        </mxCell>
        <mxCell id="KhNc6csPzSfjd1sM-tKL-12" value="03" style="ellipse;whiteSpace=wrap;html=1;aspect=fixed;fontFamily=Source Sans Pro;fillColor=#E6E6E6;fillStyle=solid;fontStyle=1;verticalAlign=middle;align=center;fontSize=10;" parent="1" vertex="1">
          <mxGeometry x="1600" y="440" width="40" height="40" as="geometry" />
        </mxCell>
        <mxCell id="KhNc6csPzSfjd1sM-tKL-13" value="" style="endArrow=diamondThin;html=1;rounded=0;endSize=8;startArrow=classic;startFill=1;endFill=0;startSize=8;jumpSize=5;fontFamily=Source Code Pro;fontSize=50;dashed=1;" parent="1" source="KhNc6csPzSfjd1sM-tKL-12" target="KhNc6csPzSfjd1sM-tKL-2" edge="1">
          <mxGeometry width="50" height="50" relative="1" as="geometry">
            <mxPoint x="1566" y="378" as="sourcePoint" />
            <mxPoint x="1614" y="342" as="targetPoint" />
          </mxGeometry>
        </mxCell>
        <mxCell id="KhNc6csPzSfjd1sM-tKL-14" value="" style="endArrow=diamondThin;html=1;rounded=0;endSize=8;startArrow=classic;startFill=1;endFill=0;startSize=8;jumpSize=5;fontFamily=Source Code Pro;fontSize=50;" parent="1" source="KhNc6csPzSfjd1sM-tKL-11" target="KhNc6csPzSfjd1sM-tKL-12" edge="1">
          <mxGeometry width="50" height="50" relative="1" as="geometry">
            <mxPoint x="1614" y="438" as="sourcePoint" />
            <mxPoint x="1566" y="402" as="targetPoint" />
          </mxGeometry>
        </mxCell>
        <mxCell id="KhNc6csPzSfjd1sM-tKL-15" value="04" style="ellipse;whiteSpace=wrap;html=1;aspect=fixed;fontFamily=Source Sans Pro;fillColor=#E6E6E6;fillStyle=solid;fontStyle=1;verticalAlign=middle;align=center;fontSize=10;" parent="1" vertex="1">
          <mxGeometry x="1720" y="280" width="40" height="40" as="geometry" />
        </mxCell>
        <mxCell id="KhNc6csPzSfjd1sM-tKL-16" value="" style="endArrow=diamondThin;html=1;rounded=0;endSize=8;startArrow=classic;startFill=1;endFill=0;startSize=8;jumpSize=5;fontFamily=Source Code Pro;fontSize=50;" parent="1" source="KhNc6csPzSfjd1sM-tKL-11" target="KhNc6csPzSfjd1sM-tKL-15" edge="1">
          <mxGeometry width="50" height="50" relative="1" as="geometry">
            <mxPoint x="1566" y="378" as="sourcePoint" />
            <mxPoint x="1614" y="342" as="targetPoint" />
          </mxGeometry>
        </mxCell>
        <mxCell id="KhNc6csPzSfjd1sM-tKL-17" value="05" style="ellipse;whiteSpace=wrap;html=1;aspect=fixed;fontFamily=Source Sans Pro;fillColor=#E6E6E6;fillStyle=solid;fontStyle=1;verticalAlign=middle;align=center;fontSize=10;" parent="1" vertex="1">
          <mxGeometry x="1720" y="440" width="40" height="40" as="geometry" />
        </mxCell>
        <mxCell id="KhNc6csPzSfjd1sM-tKL-18" value="" style="endArrow=diamondThin;html=1;rounded=0;endSize=8;startArrow=classic;startFill=1;endFill=0;startSize=8;jumpSize=5;fontFamily=Source Code Pro;fontSize=50;" parent="1" source="KhNc6csPzSfjd1sM-tKL-12" target="KhNc6csPzSfjd1sM-tKL-17" edge="1">
          <mxGeometry width="50" height="50" relative="1" as="geometry">
            <mxPoint x="1630" y="330" as="sourcePoint" />
            <mxPoint x="1730" y="530" as="targetPoint" />
          </mxGeometry>
        </mxCell>
        <mxCell id="KhNc6csPzSfjd1sM-tKL-19" value="06" style="ellipse;whiteSpace=wrap;html=1;aspect=fixed;fontFamily=Source Sans Pro;fillColor=#E6E6E6;fillStyle=solid;fontStyle=1;verticalAlign=middle;align=center;fontSize=10;" parent="1" vertex="1">
          <mxGeometry x="1800" y="360" width="40" height="40" as="geometry" />
        </mxCell>
        <mxCell id="KhNc6csPzSfjd1sM-tKL-20" value="07" style="ellipse;whiteSpace=wrap;html=1;aspect=fixed;fontFamily=Source Sans Pro;fillColor=#E6E6E6;fillStyle=solid;fontStyle=1;verticalAlign=middle;align=center;fontSize=10;" parent="1" vertex="1">
          <mxGeometry x="1800" y="200" width="40" height="40" as="geometry" />
        </mxCell>
        <mxCell id="KhNc6csPzSfjd1sM-tKL-21" value="" style="endArrow=diamondThin;html=1;rounded=0;endSize=8;startArrow=classic;startFill=1;endFill=0;startSize=8;jumpSize=5;fontFamily=Source Code Pro;fontSize=50;" parent="1" source="KhNc6csPzSfjd1sM-tKL-17" target="KhNc6csPzSfjd1sM-tKL-19" edge="1">
          <mxGeometry width="50" height="50" relative="1" as="geometry">
            <mxPoint x="1650" y="470" as="sourcePoint" />
            <mxPoint x="1730" y="470" as="targetPoint" />
            <Array as="points">
              <mxPoint x="1770" y="410" />
            </Array>
          </mxGeometry>
        </mxCell>
        <mxCell id="KhNc6csPzSfjd1sM-tKL-22" value="" style="endArrow=diamondThin;html=1;rounded=0;endSize=8;startArrow=classic;startFill=1;endFill=0;startSize=8;jumpSize=5;fontFamily=Source Code Pro;fontSize=50;dashed=1;" parent="1" source="KhNc6csPzSfjd1sM-tKL-19" target="KhNc6csPzSfjd1sM-tKL-17" edge="1">
          <mxGeometry width="50" height="50" relative="1" as="geometry">
            <mxPoint x="1764" y="456" as="sourcePoint" />
            <mxPoint x="1816" y="404" as="targetPoint" />
            <Array as="points">
              <mxPoint x="1790" y="430" />
            </Array>
          </mxGeometry>
        </mxCell>
        <mxCell id="KhNc6csPzSfjd1sM-tKL-23" value="" style="endArrow=diamondThin;html=1;rounded=0;endSize=8;startArrow=classic;startFill=1;endFill=0;startSize=8;jumpSize=5;fontFamily=Source Code Pro;fontSize=50;" parent="1" source="KhNc6csPzSfjd1sM-tKL-15" target="KhNc6csPzSfjd1sM-tKL-19" edge="1">
          <mxGeometry width="50" height="50" relative="1" as="geometry">
            <mxPoint x="1650" y="310" as="sourcePoint" />
            <mxPoint x="1730" y="310" as="targetPoint" />
          </mxGeometry>
        </mxCell>
        <mxCell id="KhNc6csPzSfjd1sM-tKL-24" value="08" style="ellipse;whiteSpace=wrap;html=1;aspect=fixed;fontFamily=Source Sans Pro;fillColor=#E6E6E6;fillStyle=solid;fontStyle=1;verticalAlign=middle;align=center;fontSize=10;" parent="1" vertex="1">
          <mxGeometry x="1880" y="200" width="40" height="40" as="geometry" />
        </mxCell>
        <mxCell id="KhNc6csPzSfjd1sM-tKL-25" value="09" style="ellipse;whiteSpace=wrap;html=1;aspect=fixed;fontFamily=Source Sans Pro;fillColor=#E6E6E6;fillStyle=solid;fontStyle=1;verticalAlign=middle;align=center;fontSize=10;" parent="1" vertex="1">
          <mxGeometry x="1880" y="120" width="40" height="40" as="geometry" />
        </mxCell>
        <mxCell id="KhNc6csPzSfjd1sM-tKL-26" value="10" style="ellipse;whiteSpace=wrap;html=1;aspect=fixed;fontFamily=Source Sans Pro;fillColor=#E6E6E6;fillStyle=solid;fontStyle=1;verticalAlign=middle;align=center;fontSize=10;" parent="1" vertex="1">
          <mxGeometry x="1800" y="120" width="40" height="40" as="geometry" />
        </mxCell>
        <mxCell id="KhNc6csPzSfjd1sM-tKL-27" value="" style="endArrow=diamondThin;html=1;rounded=0;endSize=8;startArrow=classic;startFill=1;endFill=0;startSize=8;jumpSize=5;fontFamily=Source Code Pro;fontSize=50;" parent="1" source="KhNc6csPzSfjd1sM-tKL-25" target="KhNc6csPzSfjd1sM-tKL-24" edge="1">
          <mxGeometry width="50" height="50" relative="1" as="geometry">
            <mxPoint x="1764" y="324" as="sourcePoint" />
            <mxPoint x="1816" y="376" as="targetPoint" />
          </mxGeometry>
        </mxCell>
        <mxCell id="KhNc6csPzSfjd1sM-tKL-28" value="" style="endArrow=diamondThin;html=1;rounded=0;endSize=8;startArrow=classic;startFill=1;endFill=0;startSize=8;jumpSize=5;fontFamily=Source Code Pro;fontSize=50;" parent="1" source="KhNc6csPzSfjd1sM-tKL-24" target="KhNc6csPzSfjd1sM-tKL-20" edge="1">
          <mxGeometry width="50" height="50" relative="1" as="geometry">
            <mxPoint x="1774" y="334" as="sourcePoint" />
            <mxPoint x="1826" y="386" as="targetPoint" />
          </mxGeometry>
        </mxCell>
        <mxCell id="KhNc6csPzSfjd1sM-tKL-29" value="" style="endArrow=diamondThin;html=1;rounded=0;endSize=8;startArrow=classic;startFill=1;endFill=0;startSize=8;jumpSize=5;fontFamily=Source Code Pro;fontSize=50;dashed=1;" parent="1" source="KhNc6csPzSfjd1sM-tKL-20" target="KhNc6csPzSfjd1sM-tKL-26" edge="1">
          <mxGeometry width="50" height="50" relative="1" as="geometry">
            <mxPoint x="1890" y="230" as="sourcePoint" />
            <mxPoint x="1850" y="230" as="targetPoint" />
          </mxGeometry>
        </mxCell>
        <mxCell id="KhNc6csPzSfjd1sM-tKL-30" value="" style="endArrow=diamondThin;html=1;rounded=0;endSize=8;startArrow=classic;startFill=1;endFill=0;startSize=8;jumpSize=5;fontFamily=Source Code Pro;fontSize=50;" parent="1" source="KhNc6csPzSfjd1sM-tKL-26" target="KhNc6csPzSfjd1sM-tKL-25" edge="1">
          <mxGeometry width="50" height="50" relative="1" as="geometry">
            <mxPoint x="1830" y="210" as="sourcePoint" />
            <mxPoint x="1830" y="170" as="targetPoint" />
          </mxGeometry>
        </mxCell>
        <mxCell id="KhNc6csPzSfjd1sM-tKL-31" value="" style="endArrow=diamondThin;html=1;rounded=0;endSize=8;startArrow=classic;startFill=1;endFill=0;startSize=8;jumpSize=5;fontFamily=Source Code Pro;fontSize=50;" parent="1" source="KhNc6csPzSfjd1sM-tKL-20" target="KhNc6csPzSfjd1sM-tKL-15" edge="1">
          <mxGeometry width="50" height="50" relative="1" as="geometry">
            <mxPoint x="1850" y="150" as="sourcePoint" />
            <mxPoint x="1890" y="150" as="targetPoint" />
          </mxGeometry>
        </mxCell>
        <mxCell id="KhNc6csPzSfjd1sM-tKL-32" value="6" style="text;html=1;align=center;verticalAlign=middle;whiteSpace=wrap;rounded=0;fontFamily=Source Code Pro;fontSize=8;fontStyle=1;fillColor=#E1DCDC;strokeColor=default;dashed=1;" parent="1" vertex="1">
          <mxGeometry x="1430" y="360" width="20" height="10" as="geometry" />
        </mxCell>
        <mxCell id="KhNc6csPzSfjd1sM-tKL-33" value="88" style="text;html=1;align=center;verticalAlign=middle;whiteSpace=wrap;rounded=0;fontFamily=Source Code Pro;fontSize=8;fontStyle=1;fillColor=#E1DCDC;strokeColor=default;dashed=1;" parent="1" vertex="1">
          <mxGeometry x="1510" y="360" width="20" height="10" as="geometry" />
        </mxCell>
        <mxCell id="sxzRN0KnX-NExCNtBNOz-1" value="61" style="text;html=1;align=center;verticalAlign=middle;whiteSpace=wrap;rounded=0;fontFamily=Source Code Pro;fontSize=8;fontStyle=1;fillColor=#E1DCDC;strokeColor=default;dashed=1;" parent="1" vertex="1">
          <mxGeometry x="1590" y="280" width="20" height="10" as="geometry" />
        </mxCell>
        <mxCell id="sxzRN0KnX-NExCNtBNOz-2" value="33" style="text;html=1;align=center;verticalAlign=middle;whiteSpace=wrap;rounded=0;fontFamily=Source Code Pro;fontSize=8;fontStyle=1;fillColor=#E1DCDC;strokeColor=default;dashed=1;" parent="1" vertex="1">
          <mxGeometry x="1630" y="440" width="20" height="10" as="geometry" />
        </mxCell>
        <mxCell id="sxzRN0KnX-NExCNtBNOz-3" value="96" style="text;html=1;align=center;verticalAlign=middle;whiteSpace=wrap;rounded=0;fontFamily=Source Code Pro;fontSize=8;fontStyle=1;fillColor=#E1DCDC;strokeColor=default;dashed=1;" parent="1" vertex="1">
          <mxGeometry x="1710" y="280" width="20" height="10" as="geometry" />
        </mxCell>
        <mxCell id="sxzRN0KnX-NExCNtBNOz-4" value="7" style="text;html=1;align=center;verticalAlign=middle;whiteSpace=wrap;rounded=0;fontFamily=Source Code Pro;fontSize=8;fontStyle=1;fillColor=#E1DCDC;strokeColor=default;dashed=1;" parent="1" vertex="1">
          <mxGeometry x="1830" y="360" width="20" height="10" as="geometry" />
        </mxCell>
        <mxCell id="sxzRN0KnX-NExCNtBNOz-5" value="42" style="text;html=1;align=center;verticalAlign=middle;whiteSpace=wrap;rounded=0;fontFamily=Source Code Pro;fontSize=8;fontStyle=1;fillColor=#E1DCDC;strokeColor=default;dashed=1;" parent="1" vertex="1">
          <mxGeometry x="1910" y="360" width="20" height="10" as="geometry" />
        </mxCell>
        <mxCell id="sxzRN0KnX-NExCNtBNOz-6" value="53" style="text;html=1;align=center;verticalAlign=middle;whiteSpace=wrap;rounded=0;fontFamily=Source Code Pro;fontSize=8;fontStyle=1;fillColor=#E1DCDC;strokeColor=default;dashed=1;" parent="1" vertex="1">
          <mxGeometry x="1710" y="520" width="20" height="10" as="geometry" />
        </mxCell>
        <mxCell id="sxzRN0KnX-NExCNtBNOz-7" value="22" style="text;html=1;align=center;verticalAlign=middle;whiteSpace=wrap;rounded=0;fontFamily=Source Code Pro;fontSize=8;fontStyle=1;fillColor=#E1DCDC;strokeColor=default;dashed=1;" parent="1" vertex="1">
          <mxGeometry x="1710" y="440" width="20" height="10" as="geometry" />
        </mxCell>
        <mxCell id="sxzRN0KnX-NExCNtBNOz-9" value="24" style="text;html=1;align=center;verticalAlign=middle;whiteSpace=wrap;rounded=0;fontFamily=Source Code Pro;fontSize=8;fontStyle=1;fillColor=#E1DCDC;strokeColor=default;dashed=1;" parent="1" vertex="1">
          <mxGeometry x="1790" y="200" width="20" height="10" as="geometry" />
        </mxCell>
        <mxCell id="sxzRN0KnX-NExCNtBNOz-10" value="38" style="text;html=1;align=center;verticalAlign=middle;whiteSpace=wrap;rounded=0;fontFamily=Source Code Pro;fontSize=8;fontStyle=1;fillColor=#E1DCDC;strokeColor=default;dashed=1;" parent="1" vertex="1">
          <mxGeometry x="1910" y="200" width="20" height="10" as="geometry" />
        </mxCell>
        <mxCell id="sxzRN0KnX-NExCNtBNOz-11" value="74" style="text;html=1;align=center;verticalAlign=middle;whiteSpace=wrap;rounded=0;fontFamily=Source Code Pro;fontSize=8;fontStyle=1;fillColor=#E1DCDC;strokeColor=default;dashed=1;" parent="1" vertex="1">
          <mxGeometry x="1910" y="120" width="20" height="10" as="geometry" />
        </mxCell>
        <mxCell id="sxzRN0KnX-NExCNtBNOz-12" value="85" style="text;html=1;align=center;verticalAlign=middle;whiteSpace=wrap;rounded=0;fontFamily=Source Code Pro;fontSize=8;fontStyle=1;fillColor=#E1DCDC;strokeColor=default;dashed=1;" parent="1" vertex="1">
          <mxGeometry x="1790" y="120" width="20" height="10" as="geometry" />
        </mxCell>
        <mxCell id="sxzRN0KnX-NExCNtBNOz-13" value="40" style="text;html=1;align=center;verticalAlign=middle;whiteSpace=wrap;rounded=0;fontFamily=Source Code Pro;fontSize=8;fontStyle=1;fillColor=#E1DCDC;strokeColor=default;dashed=1;" parent="1" vertex="1">
          <mxGeometry x="1710" y="120" width="20" height="10" as="geometry" />
        </mxCell>
      </root>
    </mxGraphModel>
  </diagram>
</mxfile>
